<svg fill="#000000" xmlns="http://www.w3.org/2000/svg"  viewBox="0 0 24 24" width="24px" height="24px"><path d="M 2.75 1.25 C 2.7215544 1.25 2.6975473 1.2625362 2.6699219 1.265625 C 2.6297846 1.2699935 2.593625 1.2783229 2.5546875 1.2890625 C 2.4876156 1.3076492 2.4272664 1.3337821 2.3691406 1.3691406 C 2.3467424 1.382546 2.319921 1.384571 2.2988281 1.4003906 C 2.2848747 1.4109299 2.278706 1.4280598 2.265625 1.4394531 C 2.2118229 1.4859779 2.1696696 1.541642 2.1308594 1.6015625 C 2.1118557 1.6311025 2.086934 1.6556445 2.0722656 1.6875 C 2.0277156 1.7833964 2 1.8873588 2 2 L 2 18 L 2 20 C 2 20.344 2.2343594 20.644516 2.5683594 20.728516 L 9.3261719 22.417969 C 9.8481719 22.548969 10.401172 22.430609 10.826172 22.099609 C 11.242787 21.77416 11.486528 21.277149 11.496094 20.75 L 15.75 20.75 C 16.214 20.75 16.658328 20.565328 16.986328 20.236328 C 17.315328 19.908328 17.5 19.464 17.5 19 L 17.5 14 C 17.5 13.586 17.164 13.25 16.75 13.25 C 16.336 13.25 16 13.586 16 14 L 16 19 C 16 19.066 15.974734 19.130734 15.927734 19.177734 C 15.880734 19.224734 15.816 19.25 15.75 19.25 L 11.5 19.25 L 11.5 5.0390625 C 11.5 4.2580625 10.981469 3.5724219 10.230469 3.3574219 C 9.6542572 3.1928318 9.0336413 3.0156774 8.1035156 2.75 L 15.75 2.75 C 15.888 2.75 16 2.862 16 3 L 16 8 C 16 8.414 16.336 8.75 16.75 8.75 C 17.164 8.75 17.5 8.414 17.5 8 L 17.5 3 C 17.5 2.034 16.717 1.25 15.75 1.25 L 2.75 1.25 z M 3.5 2.9941406 L 9.8183594 4.8007812 C 9.9253594 4.8307813 10 4.9270625 10 5.0390625 L 10 20 L 10 20.71875 C 10 20.79575 9.9652969 20.869016 9.9042969 20.916016 C 9.8432969 20.964016 9.7644531 20.980891 9.6894531 20.962891 L 3.5 19.414062 L 3.5 18 L 3.5 2.9941406 z M 19.25 8.25 C 19.058 8.25 18.866703 8.3242031 18.720703 8.4707031 C 18.427703 8.7627031 18.427703 9.2372969 18.720703 9.5292969 L 19.441406 10.25 L 14.25 10.25 C 13.836 10.25 13.5 10.586 13.5 11 C 13.5 11.414 13.836 11.75 14.25 11.75 L 19.441406 11.75 L 18.720703 12.470703 C 18.427703 12.762703 18.427703 13.237297 18.720703 13.529297 C 19.012703 13.822297 19.487297 13.822297 19.779297 13.529297 L 21.779297 11.529297 C 22.072297 11.236297 22.072297 10.763703 21.779297 10.470703 L 19.779297 8.4707031 C 19.633297 8.3242031 19.442 8.25 19.25 8.25 z"/></svg>