<svg fill="#000000" xmlns="http://www.w3.org/2000/svg"  viewBox="0 0 50 50" width="50px" height="50px"><path d="M 5.8007812 5 C 4.2674479 5 3 6.2674479 3 7.8007812 L 3 13 L 3 14 L 3 44 C 3 44.553 3.448 45 4 45 L 29.101562 45 C 28.807562 44.361 28.571578 43.693 28.392578 43 L 5 43 L 5 14 L 45 14 L 45 29.101562 C 45.707 29.425563 46.375 29.817578 47 30.267578 L 47 13 L 47 7.8007812 C 47 6.2674479 45.732552 5 44.199219 5 L 5.8007812 5 z M 5.8007812 7 L 44.199219 7 C 44.665885 7 45 7.3341146 45 7.8007812 L 45 12 L 5 12 L 5 7.8007812 C 5 7.3341147 5.3341146 7 5.8007812 7 z M 10 20 A 1 1 0 0 0 9 21 A 1 1 0 0 0 10 22 A 1 1 0 0 0 11 21 A 1 1 0 0 0 10 20 z M 15 20 L 15 22 L 40 22 L 40 20 L 15 20 z M 10 27 A 1 1 0 0 0 9 28 A 1 1 0 0 0 10 29 A 1 1 0 0 0 11 28 A 1 1 0 0 0 10 27 z M 15 27 L 15 29 L 33 29 L 33 27 L 15 27 z M 40 30 C 34.488997 30 30 34.488997 30 40 C 30 45.511003 34.488997 50 40 50 C 45.511003 50 50 45.511003 50 40 C 50 34.488997 45.511003 30 40 30 z M 40 32 C 44.430123 32 48 35.569877 48 40 C 48 44.430123 44.430123 48 40 48 C 35.569877 48 32 44.430123 32 40 C 32 35.569877 35.569877 32 40 32 z M 10 34 A 1 1 0 0 0 9 35 A 1 1 0 0 0 10 36 A 1 1 0 0 0 11 35 A 1 1 0 0 0 10 34 z M 15 34 L 15 36 L 28 36 L 28 34 L 15 34 z M 36.490234 35.490234 A 1.0001 1.0001 0 0 0 35.792969 37.207031 L 38.585938 40 L 35.792969 42.792969 A 1.0001 1.0001 0 1 0 37.207031 44.207031 L 40 41.414062 L 42.792969 44.207031 A 1.0001 1.0001 0 1 0 44.207031 42.792969 L 41.414062 40 L 44.207031 37.207031 A 1.0001 1.0001 0 0 0 43.480469 35.490234 A 1.0001 1.0001 0 0 0 42.792969 35.792969 L 40 38.585938 L 37.207031 35.792969 A 1.0001 1.0001 0 0 0 36.490234 35.490234 z"/></svg>