<svg fill="#000000" xmlns="http://www.w3.org/2000/svg"  viewBox="0 0 24 24" width="24px" height="24px"><path d="M 11.984375 1.9863281 A 1.0001 1.0001 0 0 0 11.839844 2 L 5 2 C 3.9069372 2 3 2.9069372 3 4 L 3 8.8320312 A 1.0001 1.0001 0 0 0 3 9.1582031 L 3 14.832031 A 1.0001 1.0001 0 0 0 3 15.158203 L 3 20 C 3 21.093063 3.9069372 22 5 22 L 11.832031 22 A 1.0001 1.0001 0 0 0 12.158203 22 L 19 22 C 20.093063 22 21 21.093063 21 20 L 21 15.167969 A 1.0001 1.0001 0 0 0 21 14.841797 L 21 9.1679688 A 1.0001 1.0001 0 0 0 21 8.8417969 L 21 4 C 21 2.9069372 20.093063 2 19 2 L 12.154297 2 A 1.0001 1.0001 0 0 0 11.984375 1.9863281 z M 5 4 L 11 4 L 11 8 L 5 8 L 5 4 z M 13 4 L 19 4 L 19 8 L 13 8 L 13 4 z M 5 10 L 11 10 L 11 14 L 5 14 L 5 10 z M 13 10 L 19 10 L 19 14 L 13 14 L 13 10 z M 5 16 L 11 16 L 11 20 L 5 20 L 5 16 z M 13 16 L 19 16 L 19 20 L 13 20 L 13 16 z"/></svg>