<svg fill="#000000" xmlns="http://www.w3.org/2000/svg"  viewBox="0 0 48 48" width="48px" height="48px"><path d="M 16 5 C 12.14 5 9 8.14 9 12 C 9 15.86 12.14 19 16 19 C 19.86 19 23 15.86 23 12 C 23 8.14 19.86 5 16 5 z M 32 5 C 28.14 5 25 8.14 25 12 C 25 15.86 28.14 19 32 19 C 36.708 19 41.993078 13.649062 42.580078 13.039062 C 43.139078 12.459063 43.139078 11.541937 42.580078 10.960938 C 41.993078 10.350937 36.708 5 32 5 z M 9.5 21 C 7.57 21 6 22.57 6 24.5 L 6 34 C 6 39.514 10.486 44 16 44 C 18.542 44 20.859 43.039703 22.625 41.470703 C 20.987 39.418703 20 36.824 20 34 L 20 24.5 C 20 23.172 20.474719 21.952 21.261719 21 L 9.5 21 z M 25.5 21 C 23.57 21 22 22.57 22 24.5 L 22 34 C 22 39.514 26.486 44 32 44 C 37.514 44 42 39.514 42 34 L 42 24.5 C 42 22.57 40.43 21 38.5 21 L 25.5 21 z"/></svg>